HIERARCHY
ROOT Hips
{
	OFFSET 0.000000 0.000000 0.000000
	CHANNELS 6 Xposition Yposition Zposition Zrotation Yrotation Xrotation 
	JOINT LowerBack
	{
		OFFSET 0.000000 0.000000 0.000000
		CHANNELS 3 Zrotation Yrotation Xrotation
		JOINT Spine
		{
			OFFSET 0.028270 2.035590 -0.193380
			CHANNELS 3 Zrotation Yrotation Xrotation
			JOINT Spine1
			{
				OFFSET 0.056720 2.048850 -0.042750
				CHANNELS 3 Zrotation Yrotation Xrotation
				JOINT Neck
				{
					OFFSET 0.000000 0.000000 0.000000
					CHANNELS 3 Zrotation Yrotation Xrotation
					JOINT Neck1
					{
						OFFSET -0.054170 1.746240 0.172020
						CHANNELS 3 Zrotation Yrotation Xrotation
						JOINT Head
						{
							OFFSET 0.104070 1.761360 -0.123970
							CHANNELS 3 Zrotation Yrotation Xrotation
							End Site
							{
								OFFSET 0.000000 0.000000 0.000000
							}
						}
					}
				}
				JOINT LeftShoulder
				{
					OFFSET 0.000000 0.000000 0.000000
					CHANNELS 3 Zrotation Yrotation Xrotation
					JOINT LeftArm
					{
						OFFSET 3.362410 1.200890 -0.311210
						CHANNELS 3 Zrotation Yrotation Xrotation
						JOINT LeftForeArm
						{
							OFFSET 4.983000 -0.000000 -0.000000
							CHANNELS 3 Zrotation Yrotation Xrotation
							JOINT LeftHand
							{
								OFFSET 3.483560 -0.000000 -0.000000
								CHANNELS 3 Zrotation Yrotation Xrotation
								JOINT LeftFingerBase
								{
									OFFSET 0.000000 0.000000 0.000000
									CHANNELS 3 Zrotation Yrotation Xrotation
									JOINT LeftHandIndex1
									{
										OFFSET 0.715260 -0.000000 -0.000000
										CHANNELS 3 Zrotation Yrotation Xrotation
										End Site
										{
											OFFSET 0.000000 0.000000 0.000000
										}
									}
								}
								JOINT LThumb
								{
									OFFSET 0.000000 0.000000 0.000000
									CHANNELS 3 Zrotation Yrotation Xrotation
									End Site
									{
										OFFSET 0.000000 0.000000 0.000000
									}
								}
							}
						}
					}
				}
				JOINT RightShoulder
				{
					OFFSET 0.000000 0.000000 0.000000
					CHANNELS 3 Zrotation Yrotation Xrotation
					JOINT RightArm
					{
						OFFSET -3.136600 1.374050 -0.404650
						CHANNELS 3 Zrotation Yrotation Xrotation
						JOINT RightForeArm
						{
							OFFSET -5.241900 -0.000000 -0.000000
							CHANNELS 3 Zrotation Yrotation Xrotation
							JOINT RightHand
							{
								OFFSET -3.444170 -0.000000 -0.000000
								CHANNELS 3 Zrotation Yrotation Xrotation
								JOINT RightFingerBase
								{
									OFFSET 0.000000 0.000000 0.000000
									CHANNELS 3 Zrotation Yrotation Xrotation
									JOINT RightHandIndex1
									{
										OFFSET -0.622530 -0.000000 -0.000000
										CHANNELS 3 Zrotation Yrotation Xrotation
										End Site
										{
											OFFSET 0.000000 0.000000 0.000000
										}
									}
								}
								JOINT RThumb
								{
									OFFSET 0.000000 0.000000 0.000000
									CHANNELS 3 Zrotation Yrotation Xrotation
									End Site
									{
										OFFSET 0.000000 0.000000 0.000000
									}
								}
							}
						}
					}
				}
			}
		}
	}
}
}
MOTION
Frames: 6
Frame Time: 0.008333
-2.022003 16.719619 0.513627 16.585822 49.602250 25.263183 -3.122160 -4.399034 -1.352856 -1.081701 -4.288880 -2.797831 -6.163456 -4.365623 1.543601 8.191390 -8.763182 -7.624177 -3.687526 -0.279969 -0.025853 0.000000 0.000000 0.000000 -3.452913 6.056535 2.096950 -42.481374 0.266876 0.864675 -2.353165 -52.811733 -0.008865 8.928363 0.500546 0.036020 -0.173676 0.065442 -0.000000 0.000000 0.000000 0.000000 0.000000 0.000000 0.000000 16.044978 -8.316802 1.149687 59.839546 -5.647157 -17.508441 4.066872 4.466529 0.002790 -2.094212 1.552557 -0.030784 0.139228 -0.033218 -0.000000 0.000000 0.000000 0.000000 0.000000 0.000000 0.000000 
-1.900240 16.716262 0.613243 15.441533 48.215484 24.490852 -2.600143 -4.240040 -1.578113 -0.985745 -4.168315 -2.856451 -6.153864 -4.248779 1.539813 8.147527 -8.581863 -7.656285 -3.701087 -0.281053 -0.032179 0.000000 0.000000 0.000000 -3.468042 6.242002 2.096187 -43.146259 0.959829 0.794356 -2.433394 -51.672661 -0.007570 8.868859 0.502571 0.036583 -0.171775 0.057066 0.000000 0.000000 0.000000 0.000000 0.000000 0.000000 0.000000 16.010218 -8.035335 1.175843 59.552592 -4.685375 -17.170780 4.088095 4.710074 0.002807 -1.844274 1.526785 -0.026871 0.138564 -0.035480 -0.000000 0.000000 0.000000 0.000000 0.000000 0.000000 0.000000 
-1.783304 16.714449 0.713856 14.380531 46.770567 23.830970 -2.144782 -4.089995 -1.797645 -0.904768 -4.053381 -2.911853 -6.151028 -4.137338 1.536146 8.151085 -8.363234 -7.679866 -3.715101 -0.282255 -0.036659 0.000000 0.000000 0.000000 -3.421644 6.425216 2.096288 -43.862609 1.695602 0.764608 -2.515472 -50.472436 -0.006314 8.778253 0.516632 0.037943 -0.169678 0.048724 0.000000 0.000000 0.000000 0.000000 0.000000 0.000000 0.000000 16.016281 -7.717531 1.205344 59.329982 -3.624015 -16.880955 4.102602 4.955627 0.002857 -1.576963 1.509445 -0.023059 0.137376 -0.038010 -0.000000 0.000000 0.000000 0.000000 0.000000 0.000000 0.000000 
-1.671553 16.714097 0.816103 13.427902 45.279690 23.300105 -1.775827 -3.954916 -2.016965 -0.842262 -3.948795 -2.964496 -6.156099 -4.036116 1.533486 8.203008 -8.123788 -7.694703 -3.729479 -0.283590 -0.039070 0.000000 0.000000 0.000000 -3.324404 6.590227 2.098240 -44.600409 2.494641 0.780648 -2.598616 -49.234771 -0.005097 8.638460 0.551993 0.040697 -0.167367 0.040279 0.000000 0.000000 0.000000 0.000000 0.000000 0.000000 0.000000 16.067605 -7.382779 1.237204 59.178252 -2.464900 -16.587092 4.109361 5.222496 0.002948 -1.303145 1.502638 -0.019242 0.135696 -0.040708 -0.000000 0.000000 0.000000 0.000000 0.000000 0.000000 0.000000 
-1.565093 16.715177 0.920506 12.595765 43.752458 22.903485 -1.503799 -3.838181 -2.242645 -0.799820 -3.857201 -3.014920 -6.169240 -3.947824 1.534195 8.299067 -7.874289 -7.702095 -3.743904 -0.285026 -0.039685 0.000000 0.000000 0.000000 -3.191654 6.741513 2.102749 -45.333136 3.345329 0.854920 -2.683894 -47.966104 -0.003944 8.433186 0.614913 0.045050 -0.164937 0.031688 0.000000 0.000000 0.000000 0.000000 0.000000 0.000000 0.000000 16.162517 -7.043172 1.269028 59.105453 -1.215150 -16.275904 4.108219 5.522226 0.003106 -1.024590 1.516567 -0.015625 0.133553 -0.043570 -0.000000 0.000000 0.000000 0.000000 0.000000 0.000000 0.000000 
-1.463774 16.717630 1.027355 11.885138 42.195791 22.636351 -1.330207 -3.740267 -2.480493 -0.777275 -3.778873 -3.064012 -6.189658 -3.872827 1.539609 8.429594 -7.604615 -7.701027 -3.758406 -0.286559 -0.038307 0.000000 0.000000 0.000000 -3.038068 6.903390 2.111377 -46.042963 4.203330 1.006120 -2.774459 -46.650400 -0.002896 8.150323 0.706994 0.050901 -0.162596 0.023053 0.000000 0.000000 0.000000 0.000000 0.000000 0.000000 0.000000 16.291628 -6.687217 1.297036 59.124922 0.092129 -15.998668 4.099685 5.869307 0.003368 -0.729432 1.564332 -0.011905 0.130917 -0.046696 -0.000000 0.000000 0.000000 0.000000 0.000000 0.000000 0.000000 
